<?xml version="1.0" encoding="UTF-8"?>
<!DOCTYPE svg PUBLIC "-//W3C//DTD SVG 1.1//EN" "http://www.w3.org/Graphics/SVG/1.1/DTD/svg11.dtd">
<!-- Creator: CorelDRAW X5 -->
<svg xmlns="http://www.w3.org/2000/svg" xml:space="preserve" width="162.56mm" height="297mm" style="shape-rendering:geometricPrecision; text-rendering:geometricPrecision; image-rendering:optimizeQuality; fill-rule:evenodd; clip-rule:evenodd"
viewBox="0 0 16256 29700"
 xmlns:xlink="http://www.w3.org/1999/xlink">
 <defs>
  <style type="text/css">
   <![CDATA[
    .fil0 {fill:black}
   ]]>
  </style>
 </defs>
 <g id="Warstwa_x0020_1">
  <metadata id="CorelCorpID_0Corel-Layer"/>
  <path class="fil0" d="M2308 52707l4 0c5,1 10,3 14,7 3,4 5,8 5,13 1,6 -1,12 -5,17 -3,4 -7,7 -12,8 20,43 40,86 59,129 15,-16 30,-32 45,-48 5,-5 10,-10 15,-16 -4,-3 -8,-8 -8,-14 -1,-5 0,-10 3,-15 3,-4 7,-7 12,-8 4,-1 8,0 12,2 4,2 7,6 9,10 2,6 2,13 -2,18 -4,6 -10,10 -17,9 3,30 7,61 10,91 19,-16 38,-32 57,-48 -4,-5 -5,-12 -2,-17 2,-6 8,-10 14,-10 6,0 11,3 14,8 1,2 2,5 2,7l0 2c0,6 -4,11 -8,14 -3,2 -7,2 -11,2 -3,29 -7,58 -10,87 -73,8 -146,11 -219,10 -27,0 -54,-1 -82,-3 -32,-2 -64,-4 -96,-7 -2,-29 -4,-59 -6,-88 -4,0 -9,-2 -12,-5 -3,-3 -4,-6 -4,-10l0 -3c0,-3 1,-6 3,-9 3,-4 7,-6 12,-6 4,0 8,2 11,5 3,3 5,8 4,12 0,5 -3,10 -7,13 16,16 32,31 48,47 5,-31 9,-61 14,-92 -6,0 -12,-3 -16,-9 -3,-5 -4,-12 -2,-17 1,-5 4,-9 8,-11 4,-3 10,-4 15,-2 4,1 8,4 11,9 3,5 4,11 2,16 -1,5 -4,9 -8,11 20,21 40,42 60,63 21,-43 42,-86 63,-129 -4,-1 -8,-3 -11,-6 -4,-5 -7,-12 -6,-18 0,-5 2,-9 5,-13 4,-4 9,-7 14,-8zm-1 147c-6,1 -10,6 -13,11 -4,6 -6,13 -7,20 -1,9 -1,17 2,25 2,6 5,12 9,17 3,3 6,5 10,6 5,1 10,-2 13,-5 4,-4 6,-9 8,-14 2,-7 3,-14 3,-21 0,-8 -2,-15 -4,-22 -2,-5 -6,-10 -10,-14 -3,-2 -7,-3 -11,-2zm-105 42c-3,1 -7,2 -9,5 -4,4 -5,10 -5,15 1,5 3,9 6,12 4,3 8,4 13,3 4,-1 8,-3 11,-7 3,-4 4,-9 3,-13 -1,-5 -4,-10 -8,-13 -3,-2 -7,-3 -11,-2zm202 3c-7,2 -13,9 -13,17 0,5 2,11 6,14 4,3 8,5 13,4 5,-1 9,-3 11,-7 2,-4 3,-8 3,-12 0,-5 -3,-10 -7,-13 -4,-3 -9,-4 -13,-2zm-275 15c-3,1 -6,3 -8,7 -1,4 0,9 3,12 2,2 6,4 9,3 3,-1 6,-3 8,-7 2,-4 1,-10 -3,-13 -2,-2 -6,-3 -9,-2zm350 0c-1,0 -3,1 -4,2 -4,3 -5,10 -2,15 3,5 9,6 14,3 4,-3 6,-9 5,-13 -2,-5 -8,-9 -13,-7z"/>
  <path class="fil0" d="M2111 52968c32,4 64,6 96,8 48,3 97,3 145,2 33,-1 65,-2 98,-5 18,-1 37,-3 55,-5 -1,15 -1,29 -2,44 -55,6 -110,9 -164,10 -4,0 -8,0 -12,0 -57,0 -114,-2 -171,-6 -14,-1 -28,-2 -42,-4 -1,-15 -1,-29 -2,-44zm368 16c-2,0 -4,2 -5,4 -2,3 -1,7 0,9 1,2 3,3 5,4 3,1 6,-1 8,-3 2,-3 2,-7 0,-10 -2,-3 -5,-4 -8,-4zm-345 1c-3,1 -5,3 -6,6 -1,3 0,6 2,8 2,3 7,4 10,2 3,-2 5,-6 4,-10 -1,-4 -6,-7 -9,-6zm292 2c-3,1 -5,4 -5,7 0,3 0,5 2,7 2,3 6,4 9,2 4,-2 6,-6 5,-10 -1,-5 -6,-7 -10,-6zm-240 1c-2,1 -4,2 -5,4 -1,3 -1,7 1,9 2,2 4,4 7,3 4,0 7,-4 8,-8 0,-3 -1,-6 -3,-8 -2,-2 -4,-2 -7,-2zm184 2c-2,1 -4,2 -6,5 -1,3 -1,6 1,9 2,3 6,4 9,3 3,-1 5,-5 5,-8 0,-3 -2,-6 -4,-7 -2,-1 -4,-1 -6,-1zm-127 1c-4,1 -7,5 -6,10 1,4 4,8 8,7 5,0 8,-5 7,-10 -1,-5 -5,-8 -10,-7zm66 0c-2,0 -4,2 -5,4 -1,2 -2,5 -1,8 1,3 3,5 6,5 3,1 5,0 7,-2 2,-2 3,-6 2,-9 -1,-4 -5,-7 -9,-6z"/>
  <path class="fil0" d="M2114 53023c76,9 152,12 229,11 36,-1 72,-2 107,-5 18,-1 35,-3 53,-5 0,5 0,10 -1,15 -22,4 -44,7 -66,9 -34,3 -68,5 -102,5 0,0 -1,0 -1,0l-37 0c0,0 -1,0 -1,0 -11,0 -21,0 -32,-1 -50,-2 -100,-6 -149,-14 0,-5 0,-10 -1,-15z"/>
 </g>
</svg>
